<svg xmlns="http://www.w3.org/2000/svg" viewBox="0 0 651.72 817.25"><defs><style>.cls-1{fill:#96559c;}.cls-1,.cls-2{stroke:#96559c;}.cls-1,.cls-2,.cls-3{stroke-miterlimit:10;}.cls-2{fill:#fff;}.cls-3{fill:#ecdfef;stroke:#c696c4;}</style></defs><g id="Capa_2" data-name="Capa 2"><g id="Fondo"><g id="Logo"><path class="cls-1" d="M10.87,175.11s1.73,18.43,0,23S.5,208.52.5,208.52v36.86c0,6.33,22.76,12.39,21.89,15l-11,32.26,11,34.56L38.51,345.6l4.61,32.25,18.43,19.59H74.23V500l31.1,101,6.91,9.55,11.52,58.75L156,708.46l17.28,42.63c4.67,7.8,12.35,14.12,31.11,15,5,5.87,10.9,9.94,16.94,13.83,16.39,1.32,20.61-17.43,44.11-15,26.1,2.72,36.86,10.37,39.17,15s0,17.66,0,25.34c29.45,16,58.61,14.68,87.54,0l15-63.36c56.18-58.32,108.16-117,123.26-178.55,34-83.82,73.19-156.59,116.35-221.18,8.75-27.84,5.69-39.69-18.43-23-4.55,6.35-6.31,9.63-5.76,10.37,0,0-51.27,17.86-53,21.89s11.52,13.82,11.52,13.82a277,277,0,0,0-42.63,35.71l-12.67,44.93-20.73,36.86c2.33,11.2-.54,22.31-4.61,33.41-7.78,15.27-19.55,16.22-32.26,13.82l-46.07-56.44-27.65-24.2V430.84c-9.66-2.3-25.92,1.15-24.19-5.76s27.64-41.47,27.64-41.47-4.32-57.6-9.21-61.05-59.9,3.45-59.9,3.45l-20.74,9.22-24.19,1.15s-10.94-12.09-19-12.09-79.48,29.37-79.48,29.37l-20.74,15.55-19,1.16s-45.51,39.74-54.15,30.52S83.44,383,83.44,383s4.61-24.19,4-35.71-27.07-43.2-27.07-43.2.58-28.23-1.15-35.71-16.13-20.74-16.13-20.74.58-50.68-.57-61.05-25.35-24.19-24.19-19C10.29,169.35,10.87,175.11,10.87,175.11Z"/><path class="cls-1" d="M126.64,72l4.61-35.71c3.13-9.94,11.64-15.93,26.49-17.28,8,2,11.81,8.62,12.67,18.43L163.5,93.32l13.83,55.87L171,191.81s-11.52,16.13-11.52,17.86,2.88,23.61,2.88,23.61,27.11,5.26,25.92,12.67c-1.23,7.62-3.16,41.52-2.88,41.47,1.61,4.06-18.27,8.25-24.19,7.49-3.38-.43-19.66-10.79-17.86-11.52,2.93-18.71,4.86-37.81-2.3-60.48,0,0-10.95-44.35-10.95-47.8S126.64,72,126.64,72Z"/><path class="cls-1" d="M245.87,246.53c.41,9.24,5.6,17,25.34,20.16,13.23-.57,21.58-7.57,21.31-25.92L287.91,157l4.61-83.81L269.19,51.85s2-9.22,0-16.7-33.12-19-38.3-19,0,46.08,0,46.08L239,79.5Z"/><path class="cls-1" d="M391.59,307.58c8.62-1.69,15.28-62.87,27.07-91.58,14.35-35-6.1-197.46-10.37-197C389.23-5,373.73-7.27,363.37,21.9l-3.46,171.64,2.88,9.79c-6.2,9.73-10.79,24-13.82,42.62,0,0,5,35.67,4.6,37.44-.66,2.86,16.06,24.55,19.59,24.19C374.93,307.4,386.86,308.51,391.59,307.58Z"/><path class="cls-2" d="M279.13,429.83c-78.48,9.05-118.06,51.9-120.52,127C169,643,217.83,665.31,277,670.45c70.73-1.88,116.64-37.23,125.71-122.25C392.13,475.54,352.12,434.8,279.13,429.83Z"/><path class="cls-3" d="M215.63,508,229,497.66c3.85-9.13,6.73-18.61,11.64-27.25a21.24,21.24,0,0,1,3.75,4.91l5.77,8.23L258,494.63l11.67-.43,28.07-22,69.55,78,3.46,11H305.05L293.17,590.1,290.36,610l-7.77,17.28-10.37-2.16-71.71-70.41,2.16-31.1Z"/></g></g></g></svg>