<svg id="Fondo" xmlns="http://www.w3.org/2000/svg" viewBox="0 0 651.72 817.25"><defs><style>.cls-1{fill:#96559c;}.cls-1,.cls-2{stroke:#96559c;}.cls-1,.cls-2,.cls-3{stroke-miterlimit:10;}.cls-2{fill:#fff;}.cls-3{fill:#ecdfef;stroke:#c696c4;}</style></defs><g id="Logo"><path class="cls-1" d="M185,266.48s1.73,18.43,0,23-10.37,10.37-10.37,10.37v36.86c0,6.34,22.76,12.39,21.89,15L185.58,384l10.95,34.56L212.65,437l4.61,32.26,18.43,19.58h12.68V591.33l31.1,101,6.91,9.55,11.52,58.75,32.25,39.17,17.28,42.62c4.67,7.8,12.35,14.12,31.11,15,5,5.86,10.91,9.93,16.94,13.82,16.39,1.32,20.62-17.42,44.11-15,26.1,2.72,36.86,10.37,39.17,15s0,17.66,0,25.34c29.45,16,58.61,14.69,87.55,0l15-63.36c56.18-58.31,108.16-117,123.26-178.55,34-83.82,73.19-156.59,116.35-221.17,8.75-27.84,5.69-39.7-18.43-23-4.55,6.34-6.31,9.62-5.76,10.36,0,0-51.27,17.86-53,21.89s11.52,13.82,11.52,13.82a277,277,0,0,0-42.63,35.72l-12.67,44.92L679.2,574.05c2.33,11.2-.54,22.32-4.61,33.41-7.78,15.27-19.55,16.22-32.26,13.82l-46.07-56.44-27.65-24.19V522.22c-9.66-2.3-25.92,1.15-24.19-5.76S572.07,475,572.07,475s-4.32-57.6-9.22-61.06-59.9,3.46-59.9,3.46l-20.74,9.21L458,427.76s-10.94-12.1-19-12.1S359.53,445,359.53,445l-20.74,15.56-19,1.15s-45.51,39.74-54.15,30.53-8.06-17.86-8.06-17.86,4.61-24.19,4-35.71-27.07-43.2-27.07-43.2.58-28.22-1.15-35.71-16.13-20.73-16.13-20.73.58-50.69-.57-61.06-25.35-24.19-24.19-19C184.43,260.72,185,266.48,185,266.48Z" transform="translate(-174.14 -91.37)"/><path class="cls-1" d="M300.78,163.38l4.61-35.71c3.13-9.93,11.64-15.93,26.49-17.28,8,2,11.81,8.63,12.67,18.43l-6.91,55.87,13.83,55.87-6.34,42.63S333.61,299.31,333.61,301s2.88,23.62,2.88,23.62,27.11,5.25,25.92,12.67c-1.22,7.61-3.16,41.52-2.88,41.47,1.61,4.05-18.27,8.24-24.19,7.49-3.38-.43-19.66-10.79-17.86-11.52,2.93-18.72,4.86-37.82-2.3-60.48,0,0-10.94-44.35-10.94-47.81S300.78,163.38,300.78,163.38Z" transform="translate(-174.14 -91.37)"/><path class="cls-1" d="M420,337.9c.41,9.24,5.6,17,25.34,20.16,13.23-.57,21.58-7.57,21.31-25.92l-4.61-83.8,4.61-83.81-23.33-21.31s2-9.21,0-16.7-33.11-19-38.3-19,0,46.08,0,46.08l8.07,17.28Z" transform="translate(-174.14 -91.37)"/><path class="cls-1" d="M565.73,399c8.62-1.7,15.29-62.87,27.07-91.58,14.35-35-6.1-197.46-10.37-197-19.06-24-34.56-26.28-44.92,2.88l-3.46,171.64,2.88,9.79c-6.2,9.73-10.79,24-13.82,42.63,0,0,5,35.66,4.6,37.44-.66,2.85,16.06,24.54,19.59,24.19C549.07,398.78,561,399.89,565.73,399Z" transform="translate(-174.14 -91.37)"/><path class="cls-2" d="M453.27,521.21c-78.48,9-118.06,51.89-120.52,127C343.16,734.39,392,756.69,451.11,761.82c70.73-1.88,116.64-37.23,125.71-122.25C566.27,566.91,526.26,526.18,453.27,521.21Z" transform="translate(-174.14 -91.37)"/><path class="cls-3" d="M389.77,599.4,403.16,589c3.85-9.12,6.73-18.6,11.64-27.25a21,21,0,0,1,3.75,4.92l5.77,8.22L432.1,586l11.67-.44,28.07-22,69.55,78,3.46,11H479.19l-11.88,28.94-2.81,19.88-7.77,17.27-10.37-2.16-71.71-70.41,2.16-31.1Z" transform="translate(-174.14 -91.37)"/></g></svg>